<svg width="49" height="60" viewBox="0 0 49 60" fill="none" xmlns="http://www.w3.org/2000/svg">
<path d="M24.764 10C24.2076 9.99826 23.6564 10.1071 23.1425 10.3201C22.6285 10.5331 22.162 10.8462 21.77 11.241L10.155 22.855C10.006 23.0042 9.908 23.1968 9.87499 23.405L9.01199 28.843C8.98711 28.999 8.99955 29.1587 9.04829 29.309C9.09703 29.4593 9.18069 29.5959 9.29241 29.7076C9.40412 29.8193 9.54071 29.903 9.691 29.9517C9.84128 30.0005 10.001 30.0129 10.157 29.988L15.6 29.125C15.8083 29.092 16.0008 28.994 16.15 28.845L27.759 17.23C28.3512 16.6373 28.7544 15.8822 28.9174 15.0602C29.0805 14.2383 28.9961 13.3865 28.6749 12.6126C28.3538 11.8386 27.8103 11.1773 27.1133 10.7122C26.4162 10.2472 25.5969 9.99935 24.759 10H24.764ZM14.96 27.2L11.2 27.8L11.8 24.043L20.19 15.652L23.352 18.814L14.96 27.2ZM26.345 15.816L24.765 17.4L21.6 14.235L23.181 12.655C23.6068 12.2486 24.1728 12.0218 24.7615 12.0218C25.3501 12.0218 25.9162 12.2486 26.342 12.655C26.5497 12.8625 26.7144 13.1089 26.8269 13.3801C26.9393 13.6513 26.9971 13.942 26.9971 14.2355C26.9971 14.5291 26.9393 14.8198 26.8269 15.091C26.7144 15.3622 26.5497 15.6085 26.342 15.816H26.345Z" fill="black"/>
<path d="M3.63156 41.07C2.29156 41.07 1.30156 41.89 1.30156 43.08C1.30156 44.26 2.29156 45.08 3.63156 45.08C4.98156 45.08 5.97156 44.26 5.97156 43.08C5.97156 41.89 4.98156 41.07 3.63156 41.07ZM3.63156 41.75C4.51156 41.75 5.16156 42.3 5.16156 43.08C5.16156 43.86 4.51156 44.4 3.63156 44.4C2.76156 44.4 2.10156 43.86 2.10156 43.08C2.10156 42.3 2.76156 41.75 3.63156 41.75ZM7.67156 40.74V45.37H8.51156V40.74H7.67156ZM2.66156 45.81V46.48H7.69156V47.39H2.68156V49.37H3.49156V48.01H8.51156V45.81H2.66156ZM2.68156 49V49.66H8.81156V49H2.68156ZM16.8808 40.74V49.78H17.7108V40.74H16.8808ZM14.2308 41.71V41.85C14.2308 44.25 13.0208 46.17 10.4108 47.43L10.8508 48.1C13.8708 46.62 15.0508 44.33 15.0508 41.71H14.2308ZM10.8208 41.71V42.39H14.5908V41.71H10.8208ZM21.38 41.46V42.61C21.38 43.61 20.73 44.83 19.57 45.37L20.01 45.99C21.32 45.38 22.03 43.93 22.03 42.61V41.46H21.38ZM21.56 41.46V42.61C21.56 43.87 22.19 45.45 23.57 46.1L23.94 45.43C22.78 44.85 22.21 43.56 22.21 42.61V41.46H21.56ZM24.94 41.46V42.61C24.94 43.62 24.37 44.87 23.21 45.43L23.57 46.1C24.96 45.47 25.58 43.93 25.58 42.61V41.46H24.94ZM25.13 41.46V42.61C25.13 44.04 25.82 45.4 27.14 45.99L27.59 45.37C26.41 44.86 25.77 43.71 25.77 42.61V41.46H25.13ZM19.49 47.88V48.57H27.69V47.88H19.49ZM35.2792 40.74V49.78H36.1092V40.74H35.2792ZM32.6292 41.71V41.85C32.6292 44.25 31.4192 46.17 28.8092 47.43L29.2492 48.1C32.2692 46.62 33.4492 44.33 33.4492 41.71H32.6292ZM29.2192 41.71V42.39H32.9892V41.71H29.2192Z" fill="black"/>
</svg>
