<svg width="61" height="60" viewBox="0 0 61 60" fill="none" xmlns="http://www.w3.org/2000/svg">
<path d="M21.25 30H39.25C39.5152 30 39.7696 29.8946 39.9571 29.7071C40.1446 29.5196 40.25 29.2652 40.25 29V14C40.25 13.7348 40.1446 13.4804 39.9571 13.2929C39.7696 13.1054 39.5152 13 39.25 13H35.25V11C35.25 10.7348 35.1446 10.4804 34.9571 10.2929C34.7696 10.1054 34.5152 10 34.25 10C33.9848 10 33.7304 10.1054 33.5429 10.2929C33.3554 10.4804 33.25 10.7348 33.25 11V13H27.25V11C27.25 10.7348 27.1446 10.4804 26.9571 10.2929C26.7696 10.1054 26.5152 10 26.25 10C25.9848 10 25.7304 10.1054 25.5429 10.2929C25.3554 10.4804 25.25 10.7348 25.25 11V13H21.25C20.9848 13 20.7304 13.1054 20.5429 13.2929C20.3554 13.4804 20.25 13.7348 20.25 14V29C20.25 29.2652 20.3554 29.5196 20.5429 29.7071C20.7304 29.8946 20.9848 30 21.25 30ZM22.25 15H38.25V18H22.25V15ZM22.25 20H38.25V28H22.25V20Z" fill="black"/>
<path d="M12.3516 47.94V48.63H20.5416V47.94H12.3516ZM16.0116 45.6V48.13H16.8416V45.6H16.0116ZM13.3016 41.49V45.75H19.5416V41.49H13.3016ZM18.7416 42.16V45.08H14.1116V42.16H18.7416ZM23.9508 41.43C22.6208 41.43 21.6808 42.66 21.6808 44.58C21.6808 46.51 22.6208 47.74 23.9508 47.74C25.2808 47.74 26.2208 46.51 26.2208 44.58C26.2208 42.66 25.2808 41.43 23.9508 41.43ZM23.9508 42.18C24.8208 42.18 25.4308 43.12 25.4308 44.58C25.4308 46.05 24.8208 47.01 23.9508 47.01C23.0708 47.01 22.4708 46.05 22.4708 44.58C22.4708 43.12 23.0708 42.18 23.9508 42.18ZM27.6608 40.74V49.78H28.5008V40.74H27.6608ZM28.3008 44.35V45.05H29.9808V44.35H28.3008ZM30.75 47.94V48.63H38.94V47.94H30.75ZM34.41 45.78V48.14H35.24V45.78H34.41ZM31.71 41.38V46H37.96V41.38H37.14V42.99H32.53V41.38H31.71ZM32.53 43.66H37.14V45.32H32.53V43.66ZM46.5292 40.74V49.78H47.3592V40.74H46.5292ZM43.8792 41.71V41.85C43.8792 44.25 42.6692 46.17 40.0592 47.43L40.4992 48.1C43.5192 46.62 44.6992 44.33 44.6992 41.71H43.8792ZM40.4692 41.71V42.39H44.2392V41.71H40.4692Z" fill="black"/>
</svg>
