<svg width="49" height="60" viewBox="0 0 49 60" fill="none" xmlns="http://www.w3.org/2000/svg">
<path d="M30 24C30.7911 24 31.5644 23.7654 32.2222 23.3259C32.88 22.8864 33.3927 22.2616 33.6955 21.5307C33.9982 20.7998 34.0774 19.9956 33.9231 19.2196C33.7688 18.4437 33.3878 17.731 32.8284 17.1716C32.269 16.6122 31.5562 16.2312 30.7803 16.0769C30.0044 15.9225 29.2001 16.0017 28.4692 16.3045C27.7383 16.6072 27.1136 17.1199 26.6741 17.7777C26.2346 18.4355 26 19.2089 26 20C26 21.0609 26.4214 22.0783 27.1715 22.8284C27.9217 23.5786 28.9391 24 30 24ZM30 18C30.3955 18 30.7822 18.1173 31.1111 18.3371C31.44 18.5568 31.6963 18.8692 31.8477 19.2346C31.9991 19.6001 32.0387 20.0022 31.9615 20.3902C31.8844 20.7781 31.6939 21.1345 31.4142 21.4142C31.1345 21.6939 30.7781 21.8844 30.3901 21.9616C30.0022 22.0387 29.6 21.9991 29.2346 21.8478C28.8691 21.6964 28.5568 21.44 28.337 21.1111C28.1173 20.7822 28 20.3956 28 20C28 19.4696 28.2107 18.9609 28.5857 18.5858C28.9608 18.2107 29.4695 18 30 18ZM21.5 20.877L20.5 21.456C20.2724 21.5872 20.073 21.762 19.913 21.9703C19.753 22.1787 19.6357 22.4165 19.5676 22.6702C19.4995 22.9239 19.4821 23.1885 19.5163 23.4489C19.5505 23.7093 19.6357 23.9605 19.767 24.188L21.256 26.766C21.3871 26.9939 21.5619 27.1937 21.7704 27.3539C21.9788 27.5142 22.2168 27.6317 22.4708 27.6999C22.7247 27.7681 22.9896 27.7855 23.2503 27.7512C23.5109 27.7169 23.7623 27.6315 23.99 27.5L25 26.916C25.1541 26.829 25.3285 26.7842 25.5054 26.7861C25.6824 26.7881 25.8558 26.8367 26.008 26.927C26.1583 27.014 26.2831 27.139 26.37 27.2894C26.4568 27.4398 26.5027 27.6103 26.503 27.784V29C26.503 29.5304 26.7137 30.0391 27.0887 30.4142C27.4638 30.7893 27.9725 31 28.503 31H31.503C32.0334 31 32.5421 30.7893 32.9172 30.4142C33.2922 30.0391 33.503 29.5304 33.503 29V27.782C33.5056 27.6075 33.5535 27.4367 33.6419 27.2862C33.7303 27.1358 33.8562 27.0108 34.0074 26.9236C34.1585 26.8363 34.3297 26.7898 34.5042 26.7884C34.6787 26.7871 34.8505 26.8311 35.003 26.916L36.012 27.498C36.4713 27.7632 37.0172 27.8351 37.5296 27.6978C38.0419 27.5605 38.4787 27.2253 38.744 26.766L40.232 24.188C40.3632 23.9605 40.4484 23.7093 40.4826 23.4489C40.5168 23.1885 40.4994 22.9239 40.4313 22.6702C40.3633 22.4165 40.2459 22.1787 40.0859 21.9703C39.9259 21.762 39.7265 21.5872 39.499 21.456L38.499 20.877C38.3439 20.7867 38.2157 20.6565 38.1278 20.5001C38.0399 20.3436 37.9954 20.1664 37.999 19.987C37.9993 19.8118 38.0457 19.6398 38.1334 19.4881C38.2212 19.3365 38.3472 19.2106 38.499 19.123L39.499 18.544C39.7265 18.4128 39.9259 18.238 40.0859 18.0297C40.2459 17.8213 40.3633 17.5835 40.4313 17.3298C40.4994 17.0761 40.5168 16.8115 40.4826 16.5511C40.4484 16.2907 40.3632 16.0395 40.232 15.812L38.742 13.234C38.6108 13.0064 38.4361 12.8068 38.2278 12.6468C38.0195 12.4867 37.7817 12.3692 37.528 12.3011C37.2743 12.2329 37.0097 12.2154 36.7492 12.2495C36.4887 12.2837 36.2375 12.3688 36.01 12.5L35 13.083C34.8475 13.1683 34.6755 13.2125 34.5008 13.2112C34.3261 13.21 34.1547 13.1634 34.0035 13.076C33.8522 12.9886 33.7263 12.8633 33.638 12.7126C33.5497 12.5618 33.5022 12.3907 33.5 12.216V11C33.5 10.4696 33.2892 9.96086 32.9142 9.58579C32.5391 9.21071 32.0304 9 31.5 9H28.5C27.9695 9 27.4608 9.21071 27.0857 9.58579C26.7107 9.96086 26.5 10.4696 26.5 11V12.294C26.4999 12.4441 26.4604 12.5915 26.3852 12.7214C26.3101 12.8513 26.202 12.9591 26.072 13.034L25.918 13.123C25.7878 13.197 25.6407 13.2359 25.491 13.2359C25.3412 13.2359 25.1941 13.197 25.064 13.123L23.99 12.5C23.7625 12.3685 23.5113 12.2832 23.2508 12.2488C22.9903 12.2144 22.7256 12.2317 22.4718 12.2997C22.218 12.3677 21.9801 12.485 21.7716 12.645C21.5632 12.805 21.3883 13.0044 21.257 13.232L19.769 15.813C19.504 16.2721 19.4321 16.8177 19.5692 17.3298C19.7063 17.8419 20.0411 18.2786 20.5 18.544L21.5 19.122C21.6549 19.2127 21.7829 19.3431 21.8708 19.4997C21.9587 19.6563 22.0033 19.8335 22 20.013C22.0002 20.1883 21.9541 20.3606 21.8663 20.5123C21.7785 20.6641 21.6521 20.7899 21.5 20.877ZM22.5 17.39L21.5 16.812L22.99 14.234L24.064 14.854C24.4975 15.1032 24.9889 15.2343 25.489 15.2343C25.989 15.2343 26.4804 15.1032 26.914 14.854L27.068 14.766C27.5022 14.5154 27.863 14.1552 28.1143 13.7214C28.3656 13.2876 28.4986 12.7953 28.5 12.294V11H31.5V12.216C31.502 12.7418 31.6419 13.2579 31.9057 13.7128C32.1694 14.1678 32.5478 14.5456 33.0031 14.8086C33.4584 15.0717 33.9747 15.2108 34.5005 15.2121C35.0264 15.2134 35.5434 15.0768 36 14.816L37.007 14.234L38.5 16.812L37.5 17.39C37.0446 17.6566 36.667 18.0378 36.4046 18.4956C36.1421 18.9534 36.0041 19.4718 36.0041 19.9995C36.0041 20.5272 36.1421 21.0456 36.4046 21.5034C36.667 21.9612 37.0446 22.3424 37.5 22.609L38.5 23.188L37.012 25.766L36 25.184C35.5434 24.9232 35.0264 24.7866 34.5005 24.7879C33.9747 24.7892 33.4584 24.9283 33.0031 25.1914C32.5478 25.4544 32.1694 25.8322 31.9057 26.2872C31.6419 26.7421 31.502 27.2582 31.5 27.784V29H28.5V27.784C28.4985 27.2579 28.359 26.7415 28.0954 26.2862C27.8318 25.8309 27.4533 25.4528 26.9978 25.1897C26.5423 24.9265 26.0257 24.7874 25.4996 24.7864C24.9736 24.7855 24.4565 24.9225 24 25.184L22.993 25.766L21.5 23.188L22.5 22.609C22.9553 22.3424 23.3329 21.9612 23.5954 21.5034C23.8578 21.0456 23.9959 20.5272 23.9959 19.9995C23.9959 19.4718 23.8578 18.9534 23.5954 18.4956C23.3329 18.0378 22.9553 17.6566 22.5 17.39Z" fill="black"/>
<path d="M25.9408 42.37V43.06H28.2508V42.37H25.9408ZM27.9008 40.74V45.4H28.7308V40.74H27.9008ZM22.9108 45.87V46.53H27.9108V47.41H22.9408V49.4H23.7508V48.03H28.7308V45.87H22.9108ZM22.9408 49V49.66H29.0708V49H22.9408ZM23.5508 41.02V41.87C23.5508 43.18 22.6508 44.31 21.2908 44.77L21.7208 45.43C23.2308 44.89 24.2308 43.54 24.2308 41.87V41.02H23.5508ZM23.6908 41.02V41.87C23.6908 43.4 24.6908 44.7 26.1508 45.22L26.5808 44.57C25.2708 44.14 24.3608 43.05 24.3608 41.87V41.02H23.6908ZM35.32 43.08V43.77H37.36V43.08H35.32ZM37.1 40.74V46.13H37.93V40.74H37.1ZM34.96 46.4C33.09 46.4 31.94 47.03 31.94 48.09C31.94 49.16 33.09 49.77 34.96 49.77C36.82 49.77 37.97 49.16 37.97 48.09C37.97 47.03 36.82 46.4 34.96 46.4ZM34.96 47.05C36.32 47.05 37.15 47.43 37.15 48.09C37.15 48.74 36.32 49.12 34.96 49.12C33.6 49.12 32.77 48.74 32.77 48.09C32.77 47.43 33.6 47.05 34.96 47.05ZM32.8 41.65V42.38C32.8 43.68 31.87 44.89 30.53 45.38L30.96 46.04C32.46 45.48 33.48 44.05 33.48 42.38V41.65H32.8ZM32.96 41.65V42.38C32.96 43.9 33.93 45.26 35.4 45.79L35.82 45.13C34.51 44.67 33.63 43.55 33.63 42.38V41.65H32.96ZM30.78 41.4V42.08H35.61V41.4H30.78Z" fill="black"/>
</svg>
