<svg width="61" height="60" viewBox="0 0 61 60" fill="none" xmlns="http://www.w3.org/2000/svg">
<path d="M33.5 16C33.5 16.2652 33.3946 16.5196 33.2071 16.7071C33.0196 16.8946 32.7652 17 32.5 17H24.5C24.2348 17 23.9804 16.8946 23.7929 16.7071C23.6054 16.5196 23.5 16.2652 23.5 16C23.5 15.7348 23.6054 15.4804 23.7929 15.2929C23.9804 15.1054 24.2348 15 24.5 15H32.5C32.7652 15 33.0196 15.1054 33.2071 15.2929C33.3946 15.4804 33.5 15.7348 33.5 16ZM32.5 19H24.5C24.2348 19 23.9804 19.1054 23.7929 19.2929C23.6054 19.4804 23.5 19.7348 23.5 20C23.5 20.2652 23.6054 20.5196 23.7929 20.7071C23.9804 20.8946 24.2348 21 24.5 21H32.5C32.7652 21 33.0196 20.8946 33.2071 20.7071C33.3946 20.5196 33.5 20.2652 33.5 20C33.5 19.7348 33.3946 19.4804 33.2071 19.2929C33.0196 19.1054 32.7652 19 32.5 19ZM28.5 23H24.5C24.2348 23 23.9804 23.1054 23.7929 23.2929C23.6054 23.4804 23.5 23.7348 23.5 24C23.5 24.2652 23.6054 24.5196 23.7929 24.7071C23.9804 24.8946 24.2348 25 24.5 25H28.5C28.7652 25 29.0196 24.8946 29.2071 24.7071C29.3946 24.5196 29.5 24.2652 29.5 24C29.5 23.7348 29.3946 23.4804 29.2071 23.2929C29.0196 23.1054 28.7652 23 28.5 23ZM41.5 20V28C41.5 28.7956 41.1839 29.5587 40.6213 30.1213C40.0587 30.6839 39.2956 31 38.5 31H22.5C21.7044 31 20.9413 30.6839 20.3787 30.1213C19.8161 29.5587 19.5 28.7956 19.5 28V12C19.5 11.2044 19.8161 10.4413 20.3787 9.87868C20.9413 9.31607 21.7044 9 22.5 9H34.5C35.2956 9 36.0587 9.31607 36.6213 9.87868C37.1839 10.4413 37.5 11.2044 37.5 12V19H40.5C40.7652 19 41.0196 19.1054 41.2071 19.2929C41.3946 19.4804 41.5 19.7348 41.5 20ZM35.5 12C35.5 11.7348 35.3946 11.4804 35.2071 11.2929C35.0196 11.1054 34.7652 11 34.5 11H22.5C22.2348 11 21.9804 11.1054 21.7929 11.2929C21.6054 11.4804 21.5 11.7348 21.5 12V28C21.5 28.2652 21.6054 28.5196 21.7929 28.7071C21.9804 28.8946 22.2348 29 22.5 29H35.5V12ZM39.5 21H37.5V29H38.5C38.7652 29 39.0196 28.8946 39.2071 28.7071C39.3946 28.5196 39.5 28.2652 39.5 28V21Z" fill="black"/>
<path d="M16.2716 44.86V46.48H17.0916V44.86H16.2716ZM13.6816 43.14V43.81H19.8016V43.14H13.6816ZM13.6816 41.09V43.5H14.5016V41.76H19.7016V41.09H13.6816ZM12.5916 44.53V45.21H20.7616V44.53H12.5916ZM13.5816 46.09V46.73H18.9016V47.52H13.6016V49.22H14.4216V48.13H19.7216V46.09H13.5816ZM13.6016 49.03V49.68H19.9916V49.03H13.6016ZM28.4008 40.73V49.79H29.2308V40.73H28.4008ZM26.6808 44.21V44.89H28.6008V44.21H26.6808ZM22.1308 46.93V47.63H22.8208C24.4508 47.63 25.6008 47.57 26.9608 47.33L26.8808 46.64C25.5508 46.88 24.4208 46.93 22.8208 46.93H22.1308ZM22.1108 41.58V42.26H25.3308V44.07H22.1308V47.14H22.9508V44.75H26.1508V41.58H22.1108ZM31 47.94V48.63H39.19V47.94H31ZM34.66 45.78V48.14H35.49V45.78H34.66ZM31.96 41.38V46H38.21V41.38H37.39V42.99H32.78V41.38H31.96ZM32.78 43.66H37.39V45.32H32.78V43.66ZM46.7792 40.74V49.78H47.6092V40.74H46.7792ZM44.1292 41.71V41.85C44.1292 44.25 42.9192 46.17 40.3092 47.43L40.7492 48.1C43.7692 46.62 44.9492 44.33 44.9492 41.71H44.1292ZM40.7192 41.71V42.39H44.4892V41.71H40.7192Z" fill="black"/>
</svg>
