<svg width="61" height="60" viewBox="0 0 61 60" fill="none" xmlns="http://www.w3.org/2000/svg">
<path d="M30.75 9C28.5744 9 26.4477 9.64514 24.6387 10.8538C22.8298 12.0625 21.4199 13.7805 20.5873 15.7905C19.7548 17.8005 19.5369 20.0122 19.9614 22.146C20.3858 24.2798 21.4335 26.2398 22.9718 27.7782C24.5102 29.3166 26.4702 30.3642 28.604 30.7886C30.7378 31.2131 32.9495 30.9952 34.9595 30.1627C36.9695 29.3301 38.6875 27.9202 39.8962 26.1113C41.1049 24.3023 41.75 22.1756 41.75 20C41.7466 17.0837 40.5865 14.2878 38.5244 12.2256C36.4622 10.1635 33.6663 9.00344 30.75 9ZM21.75 20C21.7532 17.7875 22.5704 15.6534 24.0457 14.0046C25.521 12.3557 27.5514 11.3072 29.75 11.059V19.586L23.725 25.611C22.4461 24.0206 21.7492 22.0408 21.75 20ZM30.75 29C28.7092 29.0008 26.7294 28.3039 25.139 27.025L31.164 21H39.691C39.4428 23.1986 38.3943 25.229 36.7455 26.7043C35.0966 28.1797 32.9626 28.9968 30.75 29ZM31.75 19V11.059C33.7769 11.2887 35.666 12.1991 37.1085 13.6415C38.5509 15.084 39.4613 16.9731 39.691 19H31.75Z" fill="black"/>
<path d="M16.5216 43.47V45.09H17.3416V43.47H16.5216ZM13.9316 43.14V43.81H20.0516V43.14H13.9316ZM13.9316 41.09V43.5H14.7516V41.76H19.9516V41.09H13.9316ZM12.8416 44.66V45.33H21.0116V44.66H12.8416ZM13.8316 46.09V46.73H19.1516V47.52H13.8516V49.22H14.6716V48.13H19.9716V46.09H13.8316ZM13.8516 49.03V49.68H20.2416V49.03H13.8516ZM24.4508 41.43C23.1208 41.43 22.1808 42.66 22.1808 44.58C22.1808 46.51 23.1208 47.74 24.4508 47.74C25.7808 47.74 26.7208 46.51 26.7208 44.58C26.7208 42.66 25.7808 41.43 24.4508 41.43ZM24.4508 42.18C25.3208 42.18 25.9308 43.12 25.9308 44.58C25.9308 46.05 25.3208 47.01 24.4508 47.01C23.5708 47.01 22.9708 46.05 22.9708 44.58C22.9708 43.12 23.5708 42.18 24.4508 42.18ZM28.1608 40.74V49.78H29.0008V40.74H28.1608ZM28.8008 44.35V45.05H30.4808V44.35H28.8008ZM31.25 47.94V48.63H39.44V47.94H31.25ZM34.91 45.78V48.14H35.74V45.78H34.91ZM32.21 41.38V46H38.46V41.38H37.64V42.99H33.03V41.38H32.21ZM33.03 43.66H37.64V45.32H33.03V43.66ZM47.0292 40.74V49.78H47.8592V40.74H47.0292ZM44.3792 41.71V41.85C44.3792 44.25 43.1692 46.17 40.5592 47.43L40.9992 48.1C44.0192 46.62 45.1992 44.33 45.1992 41.71H44.3792ZM40.9692 41.71V42.39H44.7392V41.71H40.9692Z" fill="black"/>
</svg>
