<svg width="24" height="24" viewBox="0 0 25 24" fill="none" xmlns="http://www.w3.org/2000/svg">
<path d="M3.25 22H21.25C21.5152 22 21.7696 21.8946 21.9571 21.7071C22.1446 21.5196 22.25 21.2652 22.25 21V6C22.25 5.73478 22.1446 5.48043 21.9571 5.29289C21.7696 5.10536 21.5152 5 21.25 5H17.25V3C17.25 2.73478 17.1446 2.48043 16.9571 2.29289C16.7696 2.10536 16.5152 2 16.25 2C15.9848 2 15.7304 2.10536 15.5429 2.29289C15.3554 2.48043 15.25 2.73478 15.25 3V5H9.25V3C9.25 2.73478 9.14464 2.48043 8.95711 2.29289C8.76957 2.10536 8.51522 2 8.25 2C7.98478 2 7.73043 2.10536 7.54289 2.29289C7.35536 2.48043 7.25 2.73478 7.25 3V5H3.25C2.98478 5 2.73043 5.10536 2.54289 5.29289C2.35536 5.48043 2.25 5.73478 2.25 6V21C2.25 21.2652 2.35536 21.5196 2.54289 21.7071C2.73043 21.8946 2.98478 22 3.25 22ZM4.25 7H20.25V10H4.25V7ZM4.25 12H20.25V20H4.25V12Z" fill="black"/>
</svg>
