<svg width="24" height="24" viewBox="0 0 25 24" fill="none" xmlns="http://www.w3.org/2000/svg">
<path d="M12.75 1C10.5744 1 8.44767 1.64514 6.63873 2.85383C4.82979 4.06253 3.41989 5.78049 2.58733 7.79048C1.75477 9.80047 1.53693 12.0122 1.96137 14.146C2.3858 16.2798 3.43345 18.2398 4.97183 19.7782C6.51021 21.3166 8.47022 22.3642 10.604 22.7886C12.7378 23.2131 14.9495 22.9952 16.9595 22.1627C18.9695 21.3301 20.6875 19.9202 21.8962 18.1113C23.1049 16.3023 23.75 14.1756 23.75 12C23.7466 9.08367 22.5865 6.28778 20.5244 4.22563C18.4622 2.16347 15.6663 1.00344 12.75 1ZM3.75001 12C3.75322 9.78745 4.57035 7.65342 6.04568 6.00455C7.52102 4.35568 9.55142 3.30724 11.75 3.059V11.586L5.725 17.611C4.44607 16.0206 3.74921 14.0408 3.75001 12ZM12.75 21C10.7092 21.0008 8.72938 20.3039 7.139 19.025L13.164 13H21.691C21.4428 15.1986 20.3943 17.229 18.7455 18.7043C17.0966 20.1797 14.9626 20.9968 12.75 21ZM13.75 11V3.059C15.7769 3.28866 17.666 4.19911 19.1085 5.64155C20.5509 7.08398 21.4613 8.97306 21.691 11H13.75Z" fill="black"/>
</svg>
