<svg width="24" height="24" viewBox="0 0 24 24" fill="none" xmlns="http://www.w3.org/2000/svg">
<path d="M17.764 2.00002C17.2076 1.99826 16.6564 2.10705 16.1425 2.32009C15.6285 2.53313 15.162 2.84617 14.77 3.24102L3.15499 14.855C3.006 15.0042 2.908 15.1968 2.87499 15.405L2.01199 20.843C1.98711 20.999 1.99955 21.1587 2.04829 21.309C2.09703 21.4593 2.18069 21.5959 2.29241 21.7076C2.40412 21.8193 2.54071 21.903 2.691 21.9517C2.84128 22.0005 3.00097 22.0129 3.15699 21.988L8.59999 21.125C8.80826 21.092 9.00076 20.994 9.14999 20.845L20.759 9.23002C21.3512 8.63725 21.7544 7.88215 21.9174 7.06024C22.0805 6.23832 21.9961 5.38651 21.6749 4.61255C21.3538 3.8386 20.8103 3.17728 20.1133 2.71225C19.4162 2.24721 18.5969 1.99935 17.759 2.00002H17.764ZM7.95999 19.2L4.19999 19.8L4.79999 16.043L13.19 7.65202L16.352 10.814L7.95999 19.2ZM19.345 7.81602L17.765 9.40002L14.6 6.23502L16.181 4.65502C16.6068 4.24857 17.1728 4.02178 17.7615 4.02178C18.3501 4.02178 18.9162 4.24857 19.342 4.65502C19.5497 4.8625 19.7144 5.10888 19.8269 5.38007C19.9393 5.65126 19.9971 5.94195 19.9971 6.23552C19.9971 6.52909 19.9393 6.81978 19.8269 7.09097C19.7144 7.36217 19.5497 7.60854 19.342 7.81602H19.345Z" fill="black"/>
</svg>
